<?xml version="1.0" encoding="UTF-8" standalone="no"?>
<!-- Created with Inkscape (http://www.inkscape.org/) -->

<svg
   width="210mm"
   height="297mm"
   viewBox="0 0 210 297"
   version="1.1"
   id="svg1"
   inkscape:version="1.3.2 (091e20e, 2023-11-25)"
   sodipodi:docname="corridor-with-obstacles.svg"
   xmlns:inkscape="http://www.inkscape.org/namespaces/inkscape"
   xmlns:sodipodi="http://sodipodi.sourceforge.net/DTD/sodipodi-0.dtd"
   xmlns="http://www.w3.org/2000/svg"
   xmlns:svg="http://www.w3.org/2000/svg">
  <sodipodi:namedview
     id="namedview1"
     pagecolor="#ffffff"
     bordercolor="#000000"
     borderopacity="0.25"
     inkscape:showpageshadow="2"
     inkscape:pageopacity="0.0"
     inkscape:pagecheckerboard="0"
     inkscape:deskcolor="#d1d1d1"
     inkscape:document-units="mm"
     inkscape:zoom="0.84274691"
     inkscape:cx="396.91632"
     inkscape:cy="561.25984"
     inkscape:window-width="1920"
     inkscape:window-height="999"
     inkscape:window-x="1728"
     inkscape:window-y="25"
     inkscape:window-maximized="0"
     inkscape:current-layer="layer1" />
  <defs
     id="defs1" />
  <g
     inkscape:label="Layer 1"
     inkscape:groupmode="layer"
     id="layer1">
    <path
       style="fill:none;stroke:#000000;stroke-width:0.4;stroke-linejoin:round;stroke-opacity:1"
       d="M 27.313953,164.82558 59.651161,132.48837 H 88.22093 L 108,163.88372 l 31.39535,0.31395 15.38372,-25.43023"
       id="path9"
       inkscape:label="refline"
       sodipodi:nodetypes="cccccc" />
    <path
       style="fill:none;stroke:#000000;stroke-width:0.4;stroke-linejoin:round;stroke-opacity:1"
       d="M 31.709301,173.61628 H 19.465116 L 8.476744,180.2093 h 36.418605 z"
       id="path10"
       inkscape:label="obstacle" />
    <path
       style="fill:none;stroke:#000000;stroke-width:0.4;stroke-linejoin:round;stroke-opacity:1"
       d="m 31.709301,173.61628 31.081395,-28.56977 h 20.093025 l 12.872092,35.16278 -50.860464,1e-5 z"
       id="path11"
       sodipodi:nodetypes="cccccc"
       inkscape:label="obstacle" />
    <path
       style="fill:none;stroke:#000000;stroke-width:0.4;stroke-linejoin:round;stroke-opacity:1"
       d="M 92.574215,171.5181 147.55814,169.84883 162,179.58139 95.755811,180.20929 Z"
       id="path12"
       inkscape:label="obstacle" />
    <path
       style="fill:none;stroke:#000000;stroke-width:0.4;stroke-linejoin:round;stroke-opacity:1"
       d="m 147.55814,169.84883 20.72093,-24.48837 13.18604,-6.59302 V 180.2093 L 162,179.58139 Z"
       id="path13"
       inkscape:label="obstacle" />
    <path
       style="fill:none;stroke:#000000;stroke-width:0.4;stroke-linejoin:round;stroke-opacity:1"
       d="M 19.465116,173.61628 V 151.01163 L 12.244186,138.45349 8.476744,180.2093 Z"
       id="path14"
       inkscape:label="obstacle" />
    <path
       style="fill:none;stroke:#000000;stroke-width:0.4;stroke-linejoin:round;stroke-opacity:1"
       d="m 19.465116,151.01163 39.872093,-27.62791 v -12.55814 h -46.77907 l -0.313953,27.62791 z"
       id="path15"
       inkscape:label="obstacle" />
    <path
       style="fill:none;stroke:#000000;stroke-width:0.4;stroke-linejoin:round;stroke-opacity:1"
       d="m 59.337209,123.38372 32.965115,3.45349 5.965115,-14.44186 -38.93023,-1.56977 z"
       id="path16"
       inkscape:label="obstacle" />
    <path
       style="fill:none;stroke:#000000;stroke-width:0.4;stroke-linejoin:round;stroke-opacity:1"
       d="m 92.302324,126.83721 18.837206,18.83721 20.72093,-0.94186 19.93605,-19.93605 -4.86628,-11.14535 -48.662791,-1.25581 z"
       id="path17"
       sodipodi:nodetypes="ccccccc"
       inkscape:label="obstacle" />
    <path
       style="fill:none;stroke:#000000;stroke-width:0.4;stroke-linejoin:round;stroke-opacity:1"
       d="m 181.46511,138.76744 v -24.17442 l -34.53488,-0.94186 4.86628,11.14535 23.07558,17.26744 z"
       id="path18"
       inkscape:label="obstacle" />
    <path
       style="fill:none;stroke:#000000;stroke-width:0.4;stroke-linejoin:round;stroke-opacity:1"
       d="m 92.616278,155.72093 v -8.47675 l 8.476742,0.31396 -0.94186,8.7907 z"
       id="path19"
       inkscape:label="obstacle" />
    <path
       style="fill:none;stroke:#000000;stroke-width:0.4;stroke-linejoin:round;stroke-opacity:1"
       d="m 116.16279,168.27907 -3.45349,-10.04651 7.84884,-2.19768 5.02325,5.02326 -3.45348,6.59302 z"
       id="path20"
       inkscape:label="obstacle" />
    <path
       style="fill:none;stroke:#000000;stroke-width:0.4;stroke-linejoin:round;stroke-opacity:1"
       d="m 66.872093,141.90698 -6.906977,-4.0814 5.965115,-6.59302 8.476745,4.7093 z"
       id="path21"
       inkscape:label="obstacle" />
    <path
       style="fill:none;stroke:#000000;stroke-width:0.4;stroke-linejoin:round;stroke-opacity:1"
       d="m 137.82558,144.4186 -2.51163,6.59303 5.02326,2.19767 7.53488,-4.0814 -0.94186,-7.53488 z"
       id="path22"
       inkscape:label="obstacle" />
  </g>
</svg>
